<?xml version="1.0" encoding="utf-8"?>
<!-- Generator: Adobe Illustrator 21.0.0, SVG Export Plug-In . SVG Version: 6.00 Build 0)  -->
<svg version="1.1" id="Layer_1" xmlns="http://www.w3.org/2000/svg" xmlns:xlink="http://www.w3.org/1999/xlink" x="0px" y="0px"
	 width="129.6px" height="30.5px" viewBox="0 0 129.6 30.5" enable-background="new 0 0 129.6 30.5" xml:space="preserve">
<path fill="#FFFFFF" d="M126.9,6.6c-1.5,0-3,0.3-4.3,0.9s-2.5,1.4-3.5,2.4s-1.8,2.2-2.4,3.5c-0.2,0.4-0.3,0.7-0.4,1.1
	c-0.1-0.1-0.1-0.3-0.2-0.4c-0.6-1.4-1.5-2.7-2.6-3.8s-2.3-1.9-3.8-2.6c-1.4-0.6-2.9-1-4.5-1c-1.8,0-3.4,0.3-4.8,1
	c-1.5,0.6-2.7,1.5-3.7,2.6c-0.6,0.7-1.2,1.4-1.6,2.2c-0.5-0.8-1.1-1.5-1.7-2.2c-1.1-1.1-2.3-1.9-3.8-2.6c-1.4-0.6-2.9-1-4.5-1
	c-1.8,0-3.4,0.3-4.8,1c-1.5,0.6-2.7,1.5-3.7,2.6c-0.2,0.2-0.4,0.4-0.5,0.6V0h-5.5v8.7c-0.9-0.6-1.9-1-3-1.3c-1-0.3-2.2-0.5-3.3-0.5
	c-1.6,0-3.1,0.3-4.6,0.9C58.3,8.4,57,9.3,56,10.3c-0.7,0.7-1.3,1.5-1.8,2.3c-0.5-0.9-1.1-1.6-1.8-2.4c-1.1-1.1-2.3-1.9-3.7-2.5
	s-3-0.9-4.6-0.9c-1.2,0-2.3,0.2-3.3,0.5c-1.1,0.3-2,0.8-2.9,1.3V0h-5.5v12.8c-0.5-1-1.2-1.8-1.9-2.6c-1.1-1.1-2.3-1.9-3.7-2.5
	c-1.4-0.6-3-0.9-4.6-0.9s-3.1,0.3-4.6,0.9c-1.4,0.6-2.7,1.5-3.8,2.5c-1.1,1.1-1.9,2.3-2.5,3.8c-0.6,1.4-0.9,3-0.9,4.6
	s0.3,3.1,0.9,4.6c0.3,0.6,0.6,1.2,1,1.8H11c-0.8,0-1.5-0.1-2.1-0.4c-0.7-0.3-1.2-0.7-1.8-1.2c-0.5-0.5-0.9-1.1-1.2-1.8
	c-0.3-0.7-0.4-1.4-0.4-2.1V0H0v19.4c0,1.5,0.3,3,0.9,4.3c0.6,1.3,1.4,2.5,2.4,3.5s2.2,1.8,3.5,2.4s2.8,0.9,4.3,0.9h3.1v-3
	c0.9,0.8,2,1.4,3.1,1.9c1.4,0.6,3,0.9,4.6,0.9c1.1,0,2.2-0.2,3.3-0.5c1.1-0.3,2-0.8,3-1.3v1.8h5.5v-6c0.5,1,1.2,1.8,1.9,2.6
	c1.1,1.1,2.3,1.9,3.7,2.5s3,0.9,4.6,0.9s3.1-0.3,4.6-0.9c1.4-0.6,2.7-1.5,3.7-2.5c0.7-0.7,1.3-1.5,1.8-2.3c0.5,0.9,1.1,1.6,1.8,2.3
	c1.1,1.1,2.3,1.9,3.7,2.5s3,0.9,4.6,0.9s3.1-0.3,4.6-0.9c1.4-0.6,2.7-1.5,3.7-2.5c0.8-0.8,1.5-1.7,2-2.8c0.5,1,1.1,1.9,1.9,2.7
	c1,1.1,2.3,1.9,3.7,2.6c1.5,0.6,3.1,1,4.8,1c1.6,0,3.1-0.3,4.5-1c1.4-0.6,2.7-1.5,3.8-2.6c0.7-0.7,1.2-1.4,1.7-2.2
	c0.5,0.8,1,1.5,1.6,2.2c1,1.1,2.3,1.9,3.7,2.6c1.5,0.6,3.1,1,4.8,1c1.6,0,3.1-0.3,4.5-1c1.4-0.6,2.7-1.5,3.8-2.6
	c0.9-0.9,1.7-2,2.3-3.2v6.8h5.5V17.7c0-0.8,0.1-1.5,0.4-2.1c0.3-0.7,0.7-1.2,1.2-1.8c0.5-0.5,1.1-0.9,1.8-1.2
	c0.7-0.3,1.4-0.4,2.1-0.4h3.1V6.6H126.9z M21.9,24.8c-3.5,0-6.3-2.8-6.3-6.3s2.8-6.3,6.3-6.3s6.3,2.8,6.3,6.3S25.4,24.8,21.9,24.8z
	 M43.9,24.8c-3.5,0-6.3-2.8-6.3-6.3s2.8-6.3,6.3-6.3s6.3,2.8,6.3,6.3S47.4,24.8,43.9,24.8z M64.2,24.8c-3.5,0-6.3-2.8-6.3-6.3
	s2.8-6.3,6.3-6.3s6.3,2.8,6.3,6.3C70.4,22,67.6,24.8,64.2,24.8z M84.9,24.8c-3.5,0-6.3-2.8-6.3-6.3s2.8-6.3,6.3-6.3s6.3,2.8,6.3,6.3
	C91.2,22,88.4,24.8,84.9,24.8z M105.2,24.8c-3.5,0-6.3-2.8-6.3-6.3s2.8-6.3,6.3-6.3s6.3,2.8,6.3,6.3S108.7,24.8,105.2,24.8z"/>
</svg>
