<svg xmlns="http://www.w3.org/2000/svg" version="1.1" xmlns:xlink="http://www.w3.org/1999/xlink" xmlns:svgjs="http://svgjs.dev/svgjs" viewBox="0 0 800 800" opacity="1"><defs><filter id="bbburst-blur-1" x="-100%" y="-100%" width="400%" height="400%"><feGaussianBlur in="SourceGraphic" stdDeviation="1"></feGaussianBlur></filter><filter id="bbburst-blur-2" x="-100%" y="-100%" width="400%" height="400%"><feGaussianBlur in="SourceGraphic" stdDeviation="2"></feGaussianBlur></filter><filter id="bbburst-blur-3" x="-100%" y="-100%" width="400%" height="400%"><feGaussianBlur in="SourceGraphic" stdDeviation="4"></feGaussianBlur></filter><filter id="bbburst-blur-4" x="-100%" y="-100%" width="400%" height="400%"><feGaussianBlur in="SourceGraphic" stdDeviation="12"></feGaussianBlur></filter><symbol id="bbburst-shape-3" viewBox="0 0 131 127"><path d="m66 0 66 63.5L66 127 0 63.5 66 0Z"></path></symbol><symbol id="bbburst-shape-10" viewBox="0 0 145 145"><circle cx="72.5" cy="72.5" r="61.5" fill="none" stroke-width="22"></circle></symbol><symbol id="bbburst-shape-11" viewBox="0 0 194 167"><path d="M10.398 161 97 11l86.603 150H10.397Z" stroke-width="11"></path></symbol><symbol id="bbburst-shape-14" viewBox="0 0 185 109"><path d="M168 16.5C168 58.1975 134.197 92 92.5 92 50.8025 92 17 58.1975 17 16.5" stroke-width="33" stroke-linecap="round"></path></symbol></defs><use xlink:href="#bbburst-shape-11" width="25.817657921298935" opacity="0.7406816929130742" transform="matrix(0.8697137725728636,0.49355643425760054,-0.49355643425760054,0.8697137725728636,381.4666733649485,274.63444263640116)" fill="none" stroke="#4f230e"></use><use xlink:href="#bbburst-shape-14" width="30.698088350293997" opacity="0.5661663827861634" transform="matrix(0.994165553768803,-0.10786496975185804,0.10786496975185804,0.994165553768803,372.92996950809,357.49900797177685)" fill="none" stroke="#4f230e" filter="url(#bbburst-blur-1)"></use><use xlink:href="#bbburst-shape-10" width="33.31706948704116" opacity="0.6853833554484987" transform="matrix(0.9797189723870984,-0.20037648351233214,0.20037648351233214,0.9797189723870984,21.94067748607695,119.96756543505575)" fill="none" stroke="#973714"></use><use xlink:href="#bbburst-shape-3" width="53.979147353013865" opacity="0.26272488596207033" transform="matrix(0.8389378991449181,-0.544227159721298,0.544227159721298,0.8389378991449181,494.08031174480595,416.31948596887946)" fill="#973714" filter="url(#bbburst-blur-2)"></use><use xlink:href="#bbburst-shape-10" width="29.34987841072024" opacity="0.579095945834859" transform="matrix(0.7438825245187195,0.6683103992275272,-0.6683103992275272,0.7438825245187195,608.5249755946456,262.04541931672344)" fill="none" stroke="#973714" filter="url(#bbburst-blur-1)"></use><use xlink:href="#bbburst-shape-3" width="37.26058932595094" opacity="0.5817180566507479" transform="matrix(0.8069480668833947,0.5906223982826526,-0.5906223982826526,0.8069480668833947,264.0394953153524,50.061161914998195)" fill="#973714" filter="url(#bbburst-blur-1)"></use><use xlink:href="#bbburst-shape-11" width="20.6009149494693" opacity="0.7347577388430147" transform="matrix(0.889234877634341,-0.4574509070912842,0.4574509070912842,0.889234877634341,67.7175919182283,396.204174331239)" fill="none" stroke="#4f230e"></use><use xlink:href="#bbburst-shape-14" width="14.663112421295683" opacity="0.9361489242310015" transform="matrix(0.964754976810092,0.2631498332132451,-0.2631498332132451,0.964754976810092,114.08899268432559,350.35001824564904)" fill="none" stroke="#4f230e"></use><use xlink:href="#bbburst-shape-3" width="15.156105485750281" opacity="0.8987581526779125" transform="matrix(0.8277204357329617,0.561140695610322,-0.561140695610322,0.8277204357329617,248.73264302068623,368.119239341914)" fill="#4f230e"></use><use xlink:href="#bbburst-shape-14" width="20.154213267096598" opacity="0.8038027512607495" transform="matrix(0.7719146768199716,-0.6357261452149964,0.6357261452149964,0.7719146768199716,-127.36522605934329,354.99788885354684)" fill="none" stroke="#973714"></use><use xlink:href="#bbburst-shape-3" width="54.30998634932238" opacity="0.18217496393340749" transform="matrix(0.8476506453279821,0.5305547883819876,-0.5305547883819876,0.8476506453279821,917.3820734200233,74.48370861791562)" fill="#973714" filter="url(#bbburst-blur-3)"></use><use xlink:href="#bbburst-shape-14" width="15.292230675179466" opacity="0.8576446466917903" transform="matrix(0.9965230263245731,-0.08331781325091336,0.08331781325091336,0.9965230263245731,41.59986534398152,286.0682550509364)" fill="none" stroke="#973714"></use><use xlink:href="#bbburst-shape-10" width="12.923589825479278" opacity="0.9055776605654428" transform="matrix(0.8619197188238071,0.5070447695250284,-0.5070447695250284,0.8619197188238071,287.59087476822265,424.5001394391316)" fill="none" stroke="#4f230e"></use><use xlink:href="#bbburst-shape-11" width="34.53137143749707" opacity="0.6698936332316565" transform="matrix(0.9551701058049276,-0.2960575433536588,0.2960575433536588,0.9551701058049276,73.50384655897071,166.73383196109972)" fill="none" stroke="#973714"></use><use xlink:href="#bbburst-shape-10" width="62.726428038216554" opacity="0.4280832738824949" transform="matrix(0.9600404314980415,-0.2798613404689082,0.2798613404689082,0.9600404314980415,66.45433032155842,-107.7919398747905)" fill="none" stroke="#973714" filter="url(#bbburst-blur-2)"></use><use xlink:href="#bbburst-shape-3" width="13.02337860460996" opacity="0.8754339151485078" transform="matrix(0.9707344681871433,-0.24015535029106494,0.24015535029106494,0.9707344681871433,19.71661963307176,388.8577942217253)" fill="#973714"></use><use xlink:href="#bbburst-shape-14" width="9.908973113771557" opacity="0.9351155498623203" transform="matrix(0.9720844376480943,0.2346312981730876,-0.2346312981730876,0.9720844376480943,151.91364237038653,394.0154710395061)" fill="none" stroke="#973714"></use><use xlink:href="#bbburst-shape-10" width="57.05943817095667" opacity="0.2534359418434593" transform="matrix(0.904305842899551,-0.42688516312672725,0.42688516312672725,0.904305842899551,74.72389136080955,-245.07660458180186)" fill="none" stroke="#4f230e" filter="url(#bbburst-blur-2)"></use><use xlink:href="#bbburst-shape-14" width="18.92383994638027" opacity="0.8132921543844418" transform="matrix(0.8298370444397477,-0.558005806130639,0.558005806130639,0.8298370444397477,-208.91033526157918,287.9744450659595)" fill="none" stroke="#4f230e"></use><use xlink:href="#bbburst-shape-10" width="20.90184794268866" opacity="0.6939931488883537" transform="matrix(0.9357679059419804,-0.352616542732982,0.352616542732982,0.9357679059419804,153.4180794526757,396.581803096018)" fill="none" stroke="#4f230e"></use><use xlink:href="#bbburst-shape-3" width="22.848981945834307" opacity="0.8143440124246213" transform="matrix(0.7123126683671277,-0.7018622817075315,0.7018622817075315,0.7123126683671277,-207.5871699850457,356.2741505150778)" fill="#973714"></use><use xlink:href="#bbburst-shape-3" width="25.518660753625085" opacity="0.634481917056795" transform="matrix(0.9156763421516426,0.40191645453226715,-0.40191645453226715,0.9156763421516426,513.5206302207152,401.65903922587825)" fill="#4f230e" filter="url(#bbburst-blur-1)"></use><use xlink:href="#bbburst-shape-10" width="27.243488577734617" opacity="0.7694536070578009" transform="matrix(0.7898610030750934,0.6132859005563451,-0.6132859005563451,0.7898610030750934,299.634931795441,254.5313857450376)" fill="none" stroke="#4f230e"></use><use xlink:href="#bbburst-shape-10" width="40.10506904702205" opacity="0.3772650901814357" transform="matrix(0.9965870640325003,-0.08254831193356442,0.08254831193356442,0.9965870640325003,565.4257880634017,329.9173824773827)" fill="none" stroke="#4f230e" filter="url(#bbburst-blur-2)"></use><use xlink:href="#bbburst-shape-11" width="17.89384841310492" opacity="0.750622640006497" transform="matrix(0.7798194938473545,0.6260044384951722,-0.6260044384951722,0.7798194938473545,469.50608964493347,376.73794330961647)" fill="none" stroke="#4f230e"></use><use xlink:href="#bbburst-shape-14" width="44.653192665170174" opacity="0.5559542803212603" transform="matrix(0.9030808161843427,-0.4294706502659076,0.4294706502659076,0.9030808161843427,123.5476075881518,135.91503386712532)" fill="none" stroke="#973714" filter="url(#bbburst-blur-1)"></use><use xlink:href="#bbburst-shape-3" width="17.593162515605524" opacity="0.8383896536649349" transform="matrix(0.7377914640137319,-0.6750287072624943,0.6750287072624943,0.7377914640137319,-116.83013688731285,486.2268163712605)" fill="#973714"></use><use xlink:href="#bbburst-shape-14" width="17.38780241020413" opacity="0.8843137824162838" transform="matrix(0.90505451659437,0.42529557015343034,-0.42529557015343034,0.90505451659437,252.3509623574999,361.7535239458369)" fill="none" stroke="#4f230e"></use><use xlink:href="#bbburst-shape-3" width="68.10240198088128" opacity="0.20500965920620506" transform="matrix(0.9915244680000822,0.12992008835108615,-0.12992008835108615,0.9915244680000822,543.7720931035778,-197.3210932196805)" fill="#973714" filter="url(#bbburst-blur-3)"></use><use xlink:href="#bbburst-shape-14" width="10.076833578479793" opacity="0.9773085198611521" transform="matrix(0.8879809270029988,-0.4598802814634423,0.4598802814634423,0.8879809270029988,-176.83921600415877,427.6228828209162)" fill="none" stroke="#973714"></use><use xlink:href="#bbburst-shape-3" width="26.560186693191095" opacity="0.7342885029787705" transform="matrix(0.9591984315311788,-0.28273374214643465,0.28273374214643465,0.9591984315311788,-95.83690557436033,156.10200218543747)" fill="#973714"></use><use xlink:href="#bbburst-shape-11" width="54.23423683844043" opacity="0.25717997715385865" transform="matrix(0.7611304029513891,-0.6485988819779572,0.6485988819779572,0.7611304029513891,309.91464352809203,61.87820090355012)" fill="none" stroke="#4f230e" filter="url(#bbburst-blur-2)"></use><use xlink:href="#bbburst-shape-3" width="20.153343066450383" opacity="0.797030346297179" transform="matrix(0.8030776857334295,0.5958743413481059,-0.5958743413481059,0.8030776857334295,405.6669369669894,370.7064150963675)" fill="#4f230e"></use><use xlink:href="#bbburst-shape-3" width="18.493747553885697" opacity="0.8007430629391376" transform="matrix(0.796779661124448,-0.6042699492928717,0.6042699492928717,0.796779661124448,-55.583855976706786,439.5636299383116)" fill="#4f230e"></use><use xlink:href="#bbburst-shape-11" width="49.82965283686225" opacity="0.36141909219857915" transform="matrix(0.8576693710750505,0.5142015654582621,-0.5142015654582621,0.8576693710750505,741.0996128743552,130.29621821103456)" fill="none" stroke="#973714" filter="url(#bbburst-blur-2)"></use><use xlink:href="#bbburst-shape-11" width="55.17940957262775" opacity="0.4387824355257729" transform="matrix(0.9820625814112961,0.18855526031320757,-0.18855526031320757,0.9820625814112961,582.1347873134561,227.61434500001673)" fill="none" stroke="#4f230e" filter="url(#bbburst-blur-2)"></use><use xlink:href="#bbburst-shape-11" width="27.21542560646892" opacity="0.6233140922243465" transform="matrix(0.8746059282735301,0.4848344771453416,-0.4848344771453416,0.8746059282735301,524.4698178080805,285.94695383917696)" fill="none" stroke="#973714" filter="url(#bbburst-blur-1)"></use><use xlink:href="#bbburst-shape-14" width="47.20268159864887" opacity="0.14628567408240678" transform="matrix(0.8668610827435833,-0.498549760028648,0.498549760028648,0.8668610827435833,223.8000364982496,-264.3096170736323)" fill="none" stroke="#4f230e" filter="url(#bbburst-blur-3)"></use><use xlink:href="#bbburst-shape-3" width="58.16779874195562" opacity="0.08904644442038101" transform="matrix(0.9320753015523962,-0.3622645887138431,0.3622645887138431,0.9320753015523962,547.182560516268,-121.0469395268762)" fill="#4f230e" filter="url(#bbburst-blur-3)"></use><use xlink:href="#bbburst-shape-11" width="24.836129859914614" opacity="0.661917538034345" transform="matrix(0.7820014416929341,0.6232766201215738,-0.6232766201215738,0.7820014416929341,290.04569998118103,144.88151776003002)" fill="none" stroke="#4f230e"></use><use xlink:href="#bbburst-shape-14" width="57.15620354024745" opacity="0.39779246719668193" transform="matrix(0.9974066464186532,0.07197208958961686,-0.07197208958961686,0.9974066464186532,439.8748413436209,-12.53649627404036)" fill="none" stroke="#4f230e" filter="url(#bbburst-blur-2)"></use><use xlink:href="#bbburst-shape-11" width="52.77549751729633" opacity="0.3157284214354915" transform="matrix(0.8916173727175964,-0.4527896428455168,0.4527896428455168,0.8916173727175964,440.63408103944016,227.87599583753263)" fill="none" stroke="#4f230e" filter="url(#bbburst-blur-2)"></use><use xlink:href="#bbburst-shape-3" width="13.417043272163289" opacity="0.7705734800158442" transform="matrix(0.7516870379295458,-0.6595199746851534,0.6595199746851534,0.7516870379295458,-40.200465932101764,485.39852059182385)" fill="#973714"></use><use xlink:href="#bbburst-shape-14" width="50.253636154288216" opacity="0.22512611945256844" transform="matrix(0.9990846874712427,0.04277601267637346,-0.04277601267637346,0.9990846874712427,740.6077748651921,199.30548230465416)" fill="none" stroke="#4f230e" filter="url(#bbburst-blur-3)"></use><use xlink:href="#bbburst-shape-10" width="41.96597435109863" opacity="0.48386553304542557" transform="matrix(0.9997285016858767,0.02330070636079871,-0.02330070636079871,0.9997285016858767,427.69667213403835,128.763406469056)" fill="none" stroke="#4f230e" filter="url(#bbburst-blur-1)"></use><use xlink:href="#bbburst-shape-3" width="38.4042509757121" opacity="0.5422069567990785" transform="matrix(0.9993977518303852,-0.03470062876046776,0.03470062876046776,0.9993977518303852,400.4007473203131,254.11369948133887)" fill="#4f230e" filter="url(#bbburst-blur-1)"></use><use xlink:href="#bbburst-shape-3" width="52.66431429880754" opacity="0.006826476636779599" transform="matrix(0.9999999979620346,-0.00006384301619428306,0.00006384301619428306,0.9999999979620346,653.5606257224399,-323.7602535013929)" fill="#973714" filter="url(#bbburst-blur-3)"></use><use xlink:href="#bbburst-shape-10" width="16.252064214726722" opacity="0.8453803907357778" transform="matrix(0.9243471457207543,-0.3815525575826935,0.3815525575826935,0.9243471457207543,-27.021192567214598,354.6936656486424)" fill="none" stroke="#4f230e"></use><use xlink:href="#bbburst-shape-3" width="33.18099403865196" opacity="0.6035250278600146" transform="matrix(0.973623825814914,-0.2281592553580283,0.2281592553580283,0.973623825814914,93.77881032143692,72.80472565647847)" fill="#4f230e" filter="url(#bbburst-blur-1)"></use><use xlink:href="#bbburst-shape-3" width="34.23940797416502" opacity="0.6665857152307623" transform="matrix(0.9555396449174491,0.2948626578443515,-0.2948626578443515,0.9555396449174491,367.46339987918327,211.67986801110214)" fill="#973714"></use><use xlink:href="#bbburst-shape-3" width="11.863538704644128" opacity="0.9193496244152382" transform="matrix(0.9850950745762767,-0.17201073816933593,0.17201073816933593,0.9850950745762767,-20.080842519592146,347.64298146574146)" fill="#4f230e"></use><use xlink:href="#bbburst-shape-11" width="12.362265075810782" opacity="0.9574008411611432" transform="matrix(0.9287730422757245,-0.3706489389461344,0.3706489389461344,0.9287730422757245,-118.4662270167747,407.22859144296336)" fill="none" stroke="#4f230e"></use><use xlink:href="#bbburst-shape-3" width="43.084593228544364" opacity="0.4787494435536094" transform="matrix(0.9189617354698992,0.39434671133680177,-0.39434671133680177,0.9189617354698992,201.27531789950459,-93.51484122320102)" fill="#4f230e" filter="url(#bbburst-blur-1)"></use><use xlink:href="#bbburst-shape-3" width="32.914901034536996" opacity="0.7481860115905239" transform="matrix(0.9166912227680288,-0.39959629890685444,0.39959629890685444,0.9166912227680288,-41.72287281442749,226.32232071415103)" fill="#4f230e"></use><use xlink:href="#bbburst-shape-3" width="38.61679939282631" opacity="0.5593470120495371" transform="matrix(0.9897402117127044,-0.1428786664232665,0.1428786664232665,0.9897402117127044,67.16703517512687,-9.723236349273009)" fill="#973714" filter="url(#bbburst-blur-1)"></use><use xlink:href="#bbburst-shape-10" width="45.457558122905894" opacity="0.24746290987563369" transform="matrix(0.9988690913640434,0.047545118756505036,-0.047545118756505036,0.9988690913640434,101.45880242701864,-345.78386307314406)" fill="none" stroke="#4f230e" filter="url(#bbburst-blur-3)"></use><use xlink:href="#bbburst-shape-3" width="53.81256655333983" opacity="0.4911381033244794" transform="matrix(0.9963500818362467,0.08536108261323969,-0.08536108261323969,0.9963500818362467,297.6891857919305,-18.606367045653542)" fill="#4f230e" filter="url(#bbburst-blur-1)"></use><use xlink:href="#bbburst-shape-10" width="49.166612882668744" opacity="0.36369928627205206" transform="matrix(0.827729901492006,-0.5611267327226837,0.5611267327226837,0.827729901492006,-160.85643288328902,-148.03705360596757)" fill="none" stroke="#973714" filter="url(#bbburst-blur-2)"></use><use xlink:href="#bbburst-shape-3" width="23.847428711426286" opacity="0.6332284537905477" transform="matrix(0.9929028482656108,0.1189282721056578,-0.1189282721056578,0.9929028482656108,391.28975497255226,311.76656242437747)" fill="#973714" filter="url(#bbburst-blur-1)"></use><use xlink:href="#bbburst-shape-3" width="46.26229438474351" opacity="0.4820614949912383" transform="matrix(0.9321336083926883,-0.3621145345119778,0.3621145345119778,0.9321336083926883,348.63536317304624,382.464579369831)" fill="#973714" filter="url(#bbburst-blur-1)"></use><use xlink:href="#bbburst-shape-10" width="15.85197101744737" opacity="0.8621234779518365" transform="matrix(0.772422543509637,0.6351089782691651,-0.6351089782691651,0.772422543509637,275.3475704761102,350.87590793107455)" fill="none" stroke="#973714"></use><use xlink:href="#bbburst-shape-3" width="30.588626647258465" opacity="0.6949357654501471" transform="matrix(0.9474547135031799,-0.3198899277260966,0.3198899277260966,0.9474547135031799,139.09791508743731,308.75342107966696)" fill="#4f230e"></use><use xlink:href="#bbburst-shape-11" width="64.65709319072634" opacity="0.344400778923038" transform="matrix(0.7296672030099953,-0.6838024370032402,0.6838024370032402,0.7296672030099953,67.34545442053593,-14.94806661416547)" fill="none" stroke="#973714" filter="url(#bbburst-blur-2)"></use></svg>