<svg id="a24d586d-ee30-4dec-93d3-1b0b623a1be5" data-name="Layer 1" xmlns="http://www.w3.org/2000/svg" viewBox="0 0 900 900"><path d="M987.56,717.23a41.29,41.29,0,0,0-16.37,3.28,42.26,42.26,0,0,0-13.38,9,41.54,41.54,0,0,0-9,13.37,34.58,34.58,0,0,0-1.54,4.2c-.23-.52-.41-1-.65-1.55a46.87,46.87,0,0,0-24.22-24.2,41.62,41.62,0,0,0-17.18-3.65,45.17,45.17,0,0,0-18.44,3.65,44.35,44.35,0,0,0-14.2,9.82,43.71,43.71,0,0,0-6.23,8.36,46.51,46.51,0,0,0-6.61-8.36,47.49,47.49,0,0,0-14.38-9.82,41.94,41.94,0,0,0-17.22-3.65,45,45,0,0,0-18.42,3.65,44.41,44.41,0,0,0-14.19,9.82c-.69.72-1.33,1.47-2,2.22V692H772.64v33a45.74,45.74,0,0,0-11.23-5.16,44,44,0,0,0-12.64-1.79,43.07,43.07,0,0,0-17.4,3.54,43.86,43.86,0,0,0-21.09,18.54,43.67,43.67,0,0,0-6.87-9A45.28,45.28,0,0,0,659,719.84,43.87,43.87,0,0,0,647.84,725V692H626.93v48.79a45.82,45.82,0,0,0-7.38-9.87,44.92,44.92,0,0,0-14.26-9.63,44.85,44.85,0,0,0-34.93,0,44.79,44.79,0,0,0-24,24,45.35,45.35,0,0,0,0,34.94A48.22,48.22,0,0,0,550,787h-3.53a19.61,19.61,0,0,1-8.15-1.65,22,22,0,0,1-11.25-11.26,20.53,20.53,0,0,1-1.64-8.15V692h-21V766a41.72,41.72,0,0,0,12.28,29.74,42.51,42.51,0,0,0,13.34,9A41.11,41.11,0,0,0,546.49,808h11.93V796.69A47,47,0,0,0,570.36,804a43.73,43.73,0,0,0,17.49,3.53,44.32,44.32,0,0,0,12.58-1.78,45.45,45.45,0,0,0,11.27-5.15v6.93h20.95v-23A46.09,46.09,0,0,0,640,794.4,44.74,44.74,0,0,0,689.15,804a44.9,44.9,0,0,0,14.26-9.64,43.59,43.59,0,0,0,6.82-8.92,45.78,45.78,0,0,0,6.92,9A45.31,45.31,0,0,0,731.37,804a43.23,43.23,0,0,0,17.4,3.53A44,44,0,0,0,766.24,804a45.33,45.33,0,0,0,14.25-9.57,44.07,44.07,0,0,0,7.77-10.5,43.67,43.67,0,0,0,7.3,10.27,44.36,44.36,0,0,0,14.19,9.8,45,45,0,0,0,18.42,3.67A42,42,0,0,0,845.39,804a46.65,46.65,0,0,0,21-18.13A42.83,42.83,0,0,0,886.81,804a45.17,45.17,0,0,0,18.44,3.67A41.63,41.63,0,0,0,922.43,804a47.69,47.69,0,0,0,14.41-9.8,48.88,48.88,0,0,0,8.73-12V808h20.91V759.24a19.69,19.69,0,0,1,1.68-8.15,21.53,21.53,0,0,1,4.54-6.69,21.81,21.81,0,0,1,6.7-4.56,20.18,20.18,0,0,1,8.16-1.67H999.5V717.23ZM587.83,786.56a23.94,23.94,0,1,1,23.92-23.93A23.93,23.93,0,0,1,587.83,786.56Zm84,0a23.94,23.94,0,1,1,23.9-23.93A23.92,23.92,0,0,1,671.79,786.56Zm77,0a23.94,23.94,0,1,1,23.91-23.93A23.93,23.93,0,0,1,748.81,786.56Zm79.13,0a23.94,23.94,0,1,1,23.91-23.93A23.93,23.93,0,0,1,827.94,786.56Zm77.29,0a23.94,23.94,0,1,1,23.93-23.93A23.9,23.9,0,0,1,905.23,786.56Z" transform="translate(-300 -300)" fill="#00a1e4"/><path d="M750,310.71c117.34,0,227.65,45.7,310.62,128.67S1189.29,632.66,1189.29,750s-45.7,227.65-128.67,310.62S867.34,1189.29,750,1189.29s-227.65-45.7-310.62-128.67S310.71,867.34,310.71,750s45.7-227.65,128.67-310.62S632.66,310.71,750,310.71M750,300c-248.53,0-450,201.47-450,450s201.47,450,450,450,450-201.47,450-450S998.53,300,750,300Z" transform="translate(-300 -300)" fill="#00a1e4"/><path d="M750,478.5c149.71,0,271.5,121.79,271.5,271.5S899.71,1021.5,750,1021.5,478.5,899.71,478.5,750,600.29,478.5,750,478.5m0-10.71c-155.86,0-282.21,126.35-282.21,282.21S594.14,1032.21,750,1032.21,1032.21,905.86,1032.21,750,905.86,467.79,750,467.79Z" transform="translate(-300 -300)" fill="#00a1e4"/><path d="M732.23,1093a10.63,10.63,0,0,0-3.84-4.33,11.09,11.09,0,0,0-4.79-1.52,10.67,10.67,0,0,0-4.89.78,10.52,10.52,0,0,0-4.41,3.69,24.73,24.73,0,0,0-3.42,7.47A71.08,71.08,0,0,0,709,1123.5a24.53,24.53,0,0,0,2.24,7.9,10.39,10.39,0,0,0,3.8,4.32,10.67,10.67,0,0,0,4.71,1.52,10.9,10.9,0,0,0,5-.78,10.53,10.53,0,0,0,4.46-3.68,24.82,24.82,0,0,0,3.47-7.47,69.79,69.79,0,0,0,1.87-24.37A24.63,24.63,0,0,0,732.23,1093Z" transform="translate(-300 -300)" fill="#00a1e4"/><path d="M932.41,422.46c.15-1.06.36-2.3.62-3.71s.57-2.93,1-4.54q-1.74,1.79-3.28,3.29c-1,1-2,1.86-2.84,2.57l-18.08,15.76,19,10.42Z" transform="translate(-300 -300)" fill="#00a1e4"/><path d="M420.62,653.06a21.09,21.09,0,0,0-6.25-6,34.17,34.17,0,0,0-19.46-4.9,21.29,21.29,0,0,0-8.33,2.31,18.36,18.36,0,0,0-6.23,5.39,23.19,23.19,0,0,0-3.78,8.28L373.35,671l46.39,11.68,3.23-12.8a23.19,23.19,0,0,0,.59-9.09A18.47,18.47,0,0,0,420.62,653.06Z" transform="translate(-300 -300)" fill="#00a1e4"/><path d="M860.51,404a12.07,12.07,0,0,0,4.91-1.06,10,10,0,0,0,3.55-2.81,13,13,0,0,0,2.21-4.29,9.67,9.67,0,0,0-.91-8.6q-2.44-3.64-9.13-5.72l-7.72-2.39-6.67,21.55L854.3,403A19.47,19.47,0,0,0,860.51,404Z" transform="translate(-300 -300)" fill="#00a1e4"/><path d="M588,412l2.13,23.89,19.59-9.25-17.13-16.92q-1.15-1.11-2.64-2.67t-3.11-3.45c.29,1.64.53,3.16.74,4.59S587.88,410.9,588,412Z" transform="translate(-300 -300)" fill="#00a1e4"/><path d="M447.78,534.58a34.31,34.31,0,0,0,15.69,12.53,21.21,21.21,0,0,0,8.56,1.33,18.72,18.72,0,0,0,7.92-2.36,23.48,23.48,0,0,0,6.89-6,23.17,23.17,0,0,0,4.3-8,18.34,18.34,0,0,0,.52-8.21,21,21,0,0,0-3.23-8,34.59,34.59,0,0,0-15.68-12.52,21.06,21.06,0,0,0-8.55-1.38,18.2,18.2,0,0,0-7.92,2.31,25.22,25.22,0,0,0-11.18,14,18.45,18.45,0,0,0-.53,8.27A21.18,21.18,0,0,0,447.78,534.58Z" transform="translate(-300 -300)" fill="#00a1e4"/><path d="M518.31,470.41a12.11,12.11,0,0,0,1.75-4.71,10,10,0,0,0-.46-4.51,12.88,12.88,0,0,0-2.42-4.17,9.66,9.66,0,0,0-7.72-3.87q-4.4.09-9.75,4.6L493.54,463,508.1,480.2l6-5.09A19.78,19.78,0,0,0,518.31,470.41Z" transform="translate(-300 -300)" fill="#00a1e4"/><path d="M1049.15,574.6a11.61,11.61,0,0,0-3.72,2.93,10.14,10.14,0,0,0-2,3.78,10.8,10.8,0,0,0-.31,4.21,12.14,12.14,0,0,0,1.3,4.22,21.29,21.29,0,0,0,4.62,6.11,22.24,22.24,0,0,0,6,3.88l8.08-24.28a16.15,16.15,0,0,0-7.39-2.34A13.13,13.13,0,0,0,1049.15,574.6Z" transform="translate(-300 -300)" fill="#00a1e4"/><path d="M1103.48,675a11.18,11.18,0,0,0,3.39,3.62,10.09,10.09,0,0,0,4.41,1.59,15.11,15.11,0,0,0,5.25-.34,13.56,13.56,0,0,0,4.62-1.92,9.73,9.73,0,0,0,3.1-3.32,11.2,11.2,0,0,0,1.36-4.69,20,20,0,0,0-.55-6.1l-2.12-9.25L1099.16,660l2.12,9.25A19.06,19.06,0,0,0,1103.48,675Z" transform="translate(-300 -300)" fill="#00a1e4"/><path d="M750,321.21c-236.43,0-428.79,192.36-428.79,428.79S513.57,1178.79,750,1178.79,1178.79,986.43,1178.79,750,986.43,321.21,750,321.21Zm393.6,397.33L1103,720.16a22.23,22.23,0,0,0-7,1.34,15.3,15.3,0,0,0-5.25,3.25,13.28,13.28,0,0,0-3.26,5,16.61,16.61,0,0,0-1,6.6,16.79,16.79,0,0,0,1.48,6.51,13.59,13.59,0,0,0,3.63,4.74,14.84,14.84,0,0,0,5.47,2.84,22.22,22.22,0,0,0,7.09.78l40.67-1.62.5,12.63-40.67,1.62a31.47,31.47,0,0,1-11.28-1.5,25,25,0,0,1-15.27-13.9,34,34,0,0,1-.94-23.48,24.88,24.88,0,0,1,14.12-15,31.32,31.32,0,0,1,11.13-2.4l40.66-1.62Zm-9-56.9a38.78,38.78,0,0,1,1.07,11.85,22.58,22.58,0,0,1-2.51,9,17.44,17.44,0,0,1-5.62,6.2,23.86,23.86,0,0,1-8.17,3.47,24.4,24.4,0,0,1-9.19.42,18.82,18.82,0,0,1-8-3.24,22.86,22.86,0,0,1-6.32-7,36.64,36.64,0,0,1-4.19-10.91l-2.12-9.25-23.32,5.34-2.82-12.32,66.24-15.18ZM1076,557.53a17.47,17.47,0,0,1,6.54-1.92,15.73,15.73,0,0,1,6.64.8,18.26,18.26,0,0,1,6.09,3.65,22.16,22.16,0,0,1,4.94,6.55,20.23,20.23,0,0,1,2.27,7.16,17.76,17.76,0,0,1-.44,6.52,16.23,16.23,0,0,1-2.61,5.48,15.73,15.73,0,0,1-4.29,4l-4.77-5.84a.94.94,0,0,1-.18-.25l-.14-.27a2.47,2.47,0,0,1-.26-1.48,3,3,0,0,1,.77-1.53,13.42,13.42,0,0,0,1.57-2,8.08,8.08,0,0,0,1-2.31,7.23,7.23,0,0,0,.15-2.56,7.82,7.82,0,0,0-.9-2.82,8.59,8.59,0,0,0-2.22-2.82,7.85,7.85,0,0,0-2.84-1.49,7.66,7.66,0,0,0-3.13-.23,9.06,9.06,0,0,0-3.12,1,11.36,11.36,0,0,0-2.28,1.53,11.76,11.76,0,0,0-1.9,2.06,16.31,16.31,0,0,0-1.61,2.76,33.42,33.42,0,0,0-1.46,3.69l-8.37,24.64a32.44,32.44,0,0,0,6.7-.65,35,35,0,0,0,6.49-2,2.78,2.78,0,0,1,1.86-.17,2.22,2.22,0,0,1,1.37,1.2l3.34,6.47a41.22,41.22,0,0,1-11.34,3.85,38.14,38.14,0,0,1-11.52.34l-6.57,19.43-5.22-10.1a10.11,10.11,0,0,1-.64-1.45,4.94,4.94,0,0,1-.28-1.31,5.6,5.6,0,0,1,.06-1.35,8.43,8.43,0,0,1,.43-1.54l2.14-6.4a35.48,35.48,0,0,1-9.7-6.28,33.83,33.83,0,0,1-7.33-9.68,22.88,22.88,0,0,1-2.35-7.46,21,21,0,0,1,.36-7.75,19.56,19.56,0,0,1,3.26-7.06,17.76,17.76,0,0,1,6.37-5.33,17.5,17.5,0,0,1,5.8-1.83,20.2,20.2,0,0,1,6,.12,24,24,0,0,1,5.92,1.83,28.54,28.54,0,0,1,5.54,3.36,27.45,27.45,0,0,1,4.45-6.4A20.52,20.52,0,0,1,1076,557.53ZM1033.57,475a3.91,3.91,0,0,1,1.12,2.49,6.87,6.87,0,0,1-.45,2.55l-8.85,24.33c-.54,1.43-1.09,2.75-1.64,3.94s-1.13,2.34-1.71,3.44c1.16-.48,2.37-.93,3.62-1.33s2.6-.77,4.06-1.1l25.22-5.67a6.29,6.29,0,0,1,2.47-.11,3.91,3.91,0,0,1,2.41,1.39l7.38,8.41-47.54,8.81L999.8,539.53l-8.34-9.5,19.86-17.42,14.91-46Zm-85.13-10.38a41,41,0,0,1,7-12.26,37.61,37.61,0,0,1,10.83-9.27,31.65,31.65,0,0,1,25.55-2.59,37.92,37.92,0,0,1,12.6,7,33.43,33.43,0,0,1,8.72,10.23,30.77,30.77,0,0,1,3.47,11.11l-7,1.88a3.88,3.88,0,0,1-1.37.16,2.7,2.7,0,0,1-1.52-.7,3.73,3.73,0,0,1-1.18-2.05,28.42,28.42,0,0,0-1.06-3.23,23.8,23.8,0,0,0-2.25-4.2,25.28,25.28,0,0,0-12.58-9.19,19.53,19.53,0,0,0-8.37-.67,21.9,21.9,0,0,0-8.26,3,29.06,29.06,0,0,0-7.57,6.71,29.92,29.92,0,0,0-5.19,8.93A22.41,22.41,0,0,0,959,478a18.64,18.64,0,0,0,2.11,7.75,20.25,20.25,0,0,0,5.24,6.37,35,35,0,0,0,3.8,2.73,19.34,19.34,0,0,0,3.55,1.74,16.6,16.6,0,0,0,3.58.89,21,21,0,0,0,3.93.14,4.6,4.6,0,0,1,1.19.09,2.55,2.55,0,0,1,1,.52,2.35,2.35,0,0,1,.88,1.74l.45,7.34A27.38,27.38,0,0,1,971.9,507a35.17,35.17,0,0,1-13-7.05,34.25,34.25,0,0,1-8.91-10.6,29.87,29.87,0,0,1-3.46-12.1A31.35,31.35,0,0,1,948.44,464.59Zm-3.14-57.52L936,479.49l-8.57-4.7a4.26,4.26,0,0,1-2-2,4.7,4.7,0,0,1-.36-2.53l2.22-14.6L902.65,442.1l-11.12,9.71a4.47,4.47,0,0,1-2.25,1,4.08,4.08,0,0,1-2.79-.52l-8.62-4.72L934,400.85ZM864,372.2a43.36,43.36,0,0,1,11,4.89,22.77,22.77,0,0,1,6.58,6.24,15.48,15.48,0,0,1,2.62,7.28,20.52,20.52,0,0,1-.93,8,20.25,20.25,0,0,1-2.88,5.9A18.64,18.64,0,0,1,876,409a19.74,19.74,0,0,1-5.78,2.79,25.07,25.07,0,0,1-7,1,12.51,12.51,0,0,1,2.79,4.95l8.84,29L864,443.32a5.54,5.54,0,0,1-2.48-1.45,5.81,5.81,0,0,1-1.31-2.38l-7.22-25a5.08,5.08,0,0,0-1.17-2.18,6.18,6.18,0,0,0-2.56-1.33l-5.17-1.6-7.84,25.37L824.15,431l20.08-64.93ZM763.5,395.3l4.72-40.42,12.56,1.46-4.72,40.38a22.33,22.33,0,0,0,.23,7.13,15.55,15.55,0,0,0,2.39,5.7,13.32,13.32,0,0,0,4.43,4,16.9,16.9,0,0,0,6.37,2,16.71,16.71,0,0,0,6.66-.46,13.52,13.52,0,0,0,5.25-2.84,15.09,15.09,0,0,0,3.66-5,22.06,22.06,0,0,0,1.86-6.87L811.64,360l12.55,1.47-4.72,40.42a31.39,31.39,0,0,1-3.24,10.91,25.25,25.25,0,0,1-6.61,8.17,25.54,25.54,0,0,1-9.5,4.76A34.09,34.09,0,0,1,776.78,423a24.84,24.84,0,0,1-12.64-16.29A31.2,31.2,0,0,1,763.5,395.3Zm-67.26-17A31.69,31.69,0,0,1,713,358.91a38,38,0,0,1,14-3.59,33.32,33.32,0,0,1,13.37,1.45,31,31,0,0,1,10.15,5.69l-3.79,6.16a3.9,3.9,0,0,1-.89,1.06,2.73,2.73,0,0,1-1.59.54,3.74,3.74,0,0,1-2.26-.68,26.23,26.23,0,0,0-3-1.62,23.92,23.92,0,0,0-4.51-1.51,22.71,22.71,0,0,0-6.79-.35,23,23,0,0,0-8.67,2.31,19.58,19.58,0,0,0-6.54,5.27,22.07,22.07,0,0,0-4,7.85,29,29,0,0,0-.88,10.08A29.92,29.92,0,0,0,710,401.62a22.44,22.44,0,0,0,4.94,7.18,18.73,18.73,0,0,0,6.85,4.19,20.3,20.3,0,0,0,8.18,1,36,36,0,0,0,4.65-.62,19.68,19.68,0,0,0,3.78-1.18,16.87,16.87,0,0,0,3.21-1.81,20.46,20.46,0,0,0,2.94-2.6,4.43,4.43,0,0,1,.94-.75,2.58,2.58,0,0,1,1.1-.34,2.36,2.36,0,0,1,1.84.67l5.37,5a27.43,27.43,0,0,1-9.58,8.58A35.25,35.25,0,0,1,730,424.76a34.14,34.14,0,0,1-13.76-1.59,30,30,0,0,1-10.81-6.41A31.57,31.57,0,0,1,698,406.27a41.47,41.47,0,0,1-3.29-13.75A37.59,37.59,0,0,1,696.24,378.34Zm-67,16a31.63,31.63,0,0,1,12.94-22.17,38,38,0,0,1,13-6.09,33.56,33.56,0,0,1,13.42-1,31.06,31.06,0,0,1,11,3.73L677,375.58a3.79,3.79,0,0,1-.68,1.2,2.65,2.65,0,0,1-1.46.82,3.67,3.67,0,0,1-2.35-.25,27.8,27.8,0,0,0-3.24-1,23.81,23.81,0,0,0-4.72-.66,25.34,25.34,0,0,0-14.83,4.76,19.62,19.62,0,0,0-5.47,6.37,21.89,21.89,0,0,0-2.44,8.45,29.05,29.05,0,0,0,1,10.07,30.14,30.14,0,0,0,4.17,9.45,22.5,22.5,0,0,0,6.16,6.15,18.82,18.82,0,0,0,7.51,2.86,20.21,20.21,0,0,0,8.23-.49,34.64,34.64,0,0,0,4.45-1.47,19.53,19.53,0,0,0,3.5-1.84,16.55,16.55,0,0,0,2.83-2.37,21.11,21.11,0,0,0,2.42-3.09,4.11,4.11,0,0,1,.78-.91,2.39,2.39,0,0,1,1-.54,2.34,2.34,0,0,1,1.93.32l6.2,3.95a27.45,27.45,0,0,1-7.84,10.19,35,35,0,0,1-13.33,6.32,34.22,34.22,0,0,1-13.82,1,29.8,29.8,0,0,1-11.8-4.33,31.55,31.55,0,0,1-9.15-9,41.33,41.33,0,0,1-5.75-12.92A37.28,37.28,0,0,1,629.19,394.38Zm-41.53-4.12,53.16,50.06L632,444.5a4.38,4.38,0,0,1-2.8.41,4.74,4.74,0,0,1-2.25-1.2l-10.51-10.37-25.46,12,1.33,14.7a4.48,4.48,0,0,1-.5,2.42,4.19,4.19,0,0,1-2.06,2l-8.89,4.19L576,395.78Zm-94.26,60a43.46,43.46,0,0,1,10-6.59,22.8,22.8,0,0,1,8.81-2.18,15.66,15.66,0,0,1,7.54,1.72,20.6,20.6,0,0,1,6.24,5.1,20.29,20.29,0,0,1,3.41,5.6,19,19,0,0,1,1.36,6.12,19.83,19.83,0,0,1-.77,6.37,24.62,24.62,0,0,1-2.93,6.41,12.56,12.56,0,0,1,5.68.31L562,481.33l-8.69,7.34a5.51,5.51,0,0,1-2.56,1.31,5.69,5.69,0,0,1-2.7-.18l-25-7.4a5,5,0,0,0-2.47-.2,6.41,6.41,0,0,0-2.5,1.44L514,487.13l17.14,20.29-9.66,8.16-43.86-51.92Zm-59.16,65.83A36.83,36.83,0,0,1,441,503.48a36.18,36.18,0,0,1,10.82-9.34,32.08,32.08,0,0,1,12.45-3.95,32.43,32.43,0,0,1,13,1.38,39.64,39.64,0,0,1,21.64,17.28,32.63,32.63,0,0,1,4.24,12.35,31.65,31.65,0,0,1-1.1,13,39.21,39.21,0,0,1-17.55,22,31.78,31.78,0,0,1-12.47,4,32.78,32.78,0,0,1-13-1.39,39.77,39.77,0,0,1-21.64-17.27,32.51,32.51,0,0,1-4.22-12.37A31.85,31.85,0,0,1,434.24,516.11Zm-20.68,26.42,8.85,4.77-14.29,26.52,17.71,9.54L437.89,561l8.9,4.79-12.07,22.39,24.37,13.13-6,11.21-59.83-32.24ZM366.81,655.7a38.08,38.08,0,0,1,5.87-13,32,32,0,0,1,9.44-8.82,31.2,31.2,0,0,1,12.13-4.17,39,39,0,0,1,26.62,6.7,31.58,31.58,0,0,1,8.72,9.42,31.26,31.26,0,0,1,4.15,12.23,38.22,38.22,0,0,1-1,14.24l-6.33,25.16-65.91-16.59Zm-9.63,50.79,10.05.52-1.56,30.09,18.82,1,1.23-23.7,9.71.51-1.22,23.7,19.19,1L415,709.49l10.09.52-2.22,42.81L355,749.3Zm-2.35,58,10.33-1.08,2.11,20.34,57.27-5.95,1.3,12.57-57.26,6,2.12,20.42-10.33,1.08Zm16.71,94.33a25.38,25.38,0,0,1-4-8.71,31.73,31.73,0,0,1-1-11.2,25,25,0,0,1,2.88-9.71l6.56,1.47a3.62,3.62,0,0,1,1.72.78,3.12,3.12,0,0,1,.82,1.46,4.11,4.11,0,0,1-.16,2.23c-.27.89-.56,1.92-.86,3.1a23.32,23.32,0,0,0-.61,4,15.77,15.77,0,0,0,.59,5.07,14.84,14.84,0,0,0,1.79,4.26,9.6,9.6,0,0,0,2.55,2.73,6.94,6.94,0,0,0,3.12,1.24,8.81,8.81,0,0,0,3.51-.25,6,6,0,0,0,3.52-2.32,11.14,11.14,0,0,0,1.72-4.13,33.48,33.48,0,0,0,.67-5.38q.14-2.94.36-6a56.3,56.3,0,0,1,.8-6.17,19.89,19.89,0,0,1,2-5.72,15.28,15.28,0,0,1,3.93-4.72,17.31,17.31,0,0,1,6.61-3.13,23.28,23.28,0,0,1,8.73-.69,19.81,19.81,0,0,1,7.95,2.65,21.69,21.69,0,0,1,6.44,5.95,27.16,27.16,0,0,1,4.23,9.24,31.86,31.86,0,0,1,1,6.34,33,33,0,0,1-.2,6.3,31.2,31.2,0,0,1-1.34,6,26.41,26.41,0,0,1-2.39,5.28l-6.8-2a4.87,4.87,0,0,1-1.39-.92,3.08,3.08,0,0,1-.84-1.45,4.47,4.47,0,0,1,.28-2.7c.39-1.05.8-2.27,1.24-3.67a25.14,25.14,0,0,0,.95-4.77,17,17,0,0,0-.62-6.08c-.93-3.48-2.46-6-4.62-7.43s-4.78-1.8-7.87-1a6.79,6.79,0,0,0-3.88,2.42,10.71,10.71,0,0,0-1.84,4.15,26.72,26.72,0,0,0-.6,5.37c0,1.95-.1,3.95-.21,6a49,49,0,0,1-.71,6.12,18.34,18.34,0,0,1-2,5.75,15.45,15.45,0,0,1-4.2,4.78,19.92,19.92,0,0,1-7.22,3.3,18.64,18.64,0,0,1-14.52-2.15A21.29,21.29,0,0,1,371.54,858.87Zm9.63,33.29,9.15-4.15,12.46,27.43,17.16-7.79L410.13,886l8.86-4,9.81,21.62,17.5-8-12.45-27.43,9.2-4.18,17.72,39-61.89,28.09Zm62.89,91.72-8.67,5.73-29.56-44.75,8.67-5.73,11.27,17.06,48-31.73,7,10.55-48,31.73Zm69.81,43.65-9.48,16.26-7.44-18-19-4.21,14.37-12.16-1.63-18.93,16.71,9.91L524.48,993l-4.34,18.1,12.66,14.74Zm77.27,53.18-5.58,18-11.29-15.84-19.46.18,11.26-15.09-5.84-18.08,18.51,5.9,15-11.07-.15,18.61,15.65,11.51Zm99.89,13a21.25,21.25,0,0,1-2.68,6.52,29,29,0,0,1-4.29,5.26,41.29,41.29,0,0,1-5.53,4.49c-2,1.38-4.15,2.78-6.36,4.19l-18.51,11.7a37.89,37.89,0,0,1,4.53,0,26.73,26.73,0,0,1,4.1.61l17,4a4.11,4.11,0,0,1,2.66,1.72,3.67,3.67,0,0,1,.43,3l-1.6,6.76-45.37-10.74.89-3.75a6.78,6.78,0,0,1,3.12-4.19l24.84-15.37c2.08-1.31,4-2.58,5.67-3.83a34.19,34.19,0,0,0,4.43-3.82,21.87,21.87,0,0,0,3.16-4.16,17.65,17.65,0,0,0,1.88-4.79,12.05,12.05,0,0,0,.31-4.35,8.29,8.29,0,0,0-3.85-6.08,12.13,12.13,0,0,0-3.81-1.55,10.78,10.78,0,0,0-7.19.47,11,11,0,0,0-5,4.66,4.68,4.68,0,0,1-2.1,2.13,4.2,4.2,0,0,1-2.74.15,9.82,9.82,0,0,1-1.48-.49l-5.7-2.46a25.28,25.28,0,0,1,4.63-7.72,20.69,20.69,0,0,1,6.34-4.83,21.17,21.17,0,0,1,7.62-2,27.72,27.72,0,0,1,8.5.74,25.46,25.46,0,0,1,8.05,3.33,19.35,19.35,0,0,1,5.59,5.35,17.84,17.84,0,0,1,2.8,6.95A19.69,19.69,0,0,1,691,1093.68Zm55.58,20.45a55.68,55.68,0,0,1-3.08,15.25,31.6,31.6,0,0,1-6.07,10.39,21.34,21.34,0,0,1-8.41,5.75,23.52,23.52,0,0,1-10,1.32,23.16,23.16,0,0,1-9.65-2.83,21.24,21.24,0,0,1-7.37-7,31.6,31.6,0,0,1-4.37-11.2,56.62,56.62,0,0,1-.69-15.53A55.85,55.85,0,0,1,700,1095a31.59,31.59,0,0,1,6-10.38,21.29,21.29,0,0,1,8.34-5.75,24.35,24.35,0,0,1,19.68,1.51,21.44,21.44,0,0,1,7.44,7,31.74,31.74,0,0,1,4.42,11.18A55.59,55.59,0,0,1,746.61,1114.13Zm10.81,33.76-.29-3.85a6.75,6.75,0,0,1,1.7-4.93l19-22.19q2.38-2.82,4.24-5.37a35.55,35.55,0,0,0,3.06-5,21.78,21.78,0,0,0,1.74-4.92,17.52,17.52,0,0,0,.34-5.14,12.06,12.06,0,0,0-1-4.24,8.27,8.27,0,0,0-5.51-4.62,12.15,12.15,0,0,0-4.11-.32,10.83,10.83,0,0,0-6.7,2.63,11.08,11.08,0,0,0-3.34,6,4.7,4.7,0,0,1-1.35,2.67,4.25,4.25,0,0,1-2.57,1,9,9,0,0,1-1.55,0l-6.18-.61a25.05,25.05,0,0,1,2.07-8.76,20.35,20.35,0,0,1,4.57-6.52,20.83,20.83,0,0,1,6.65-4.24,28,28,0,0,1,8.32-1.88,25.6,25.6,0,0,1,8.68.73,19.37,19.37,0,0,1,7,3.4,17.79,17.79,0,0,1,4.78,5.77,19.69,19.69,0,0,1,2.15,7.8,21.24,21.24,0,0,1-.57,7,29.15,29.15,0,0,1-2.49,6.32,41.4,41.4,0,0,1-3.91,6c-1.51,1.94-3.11,3.91-4.78,5.93l-14.08,16.77a36.3,36.3,0,0,1,4.33-1.34,25,25,0,0,1,4.09-.67l17.39-1.33a4.16,4.16,0,0,1,3.06.83,3.73,3.73,0,0,1,1.31,2.7l.53,6.94Zm61.64-5.89-.89-3.75a6.91,6.91,0,0,1-.08-2.5,7,7,0,0,1,1-2.65l15.33-24.87q1.9-3.15,3.34-6a33.89,33.89,0,0,0,2.25-5.41,21.44,21.44,0,0,0,1-5.12,17.62,17.62,0,0,0-.46-5.13,12.26,12.26,0,0,0-1.68-4,8.22,8.22,0,0,0-6.16-3.71,12.3,12.3,0,0,0-4.11.32,10.81,10.81,0,0,0-6.21,3.64,11.05,11.05,0,0,0-2.37,6.41,4.81,4.81,0,0,1-.92,2.85,4.34,4.34,0,0,1-2.39,1.36,10.55,10.55,0,0,1-1.54.22l-6.19.35a25,25,0,0,1,.68-9,20.49,20.49,0,0,1,3.5-7.15,21.08,21.08,0,0,1,5.91-5.21,28,28,0,0,1,7.93-3.16,25.31,25.31,0,0,1,8.69-.62,19.33,19.33,0,0,1,7.39,2.28,17.81,17.81,0,0,1,5.62,5,19.82,19.82,0,0,1,3.33,7.37,21.3,21.3,0,0,1,.53,7,28.9,28.9,0,0,1-1.48,6.62,41,41,0,0,1-2.93,6.49q-1.8,3.22-3.8,6.6L833,1129a36.24,36.24,0,0,1,4.06-2,25.63,25.63,0,0,1,4-1.3l17-4a4.17,4.17,0,0,1,3.15.34,3.7,3.7,0,0,1,1.71,2.47l1.6,6.77Zm106.67-59.16-11.29,15.85-5.58-18-18.07-5.9,15.66-11.51-.17-18.61,15,11.06,18.52-5.9-5.85,18.08L945.19,1083ZM750,1043.14c-161.64,0-293.14-131.5-293.14-293.14S588.36,456.86,750,456.86,1043.14,588.36,1043.14,750,911.64,1043.14,750,1043.14Zm253-17.32-7.44,18-9.48-16.26-18.93-1.68,12.67-14.74L975.51,993l17.08,7.42,16.71-9.91-1.63,18.93,14.37,12.16ZM1092,947.9a4,4,0,0,1-2.1,1.76,6.77,6.77,0,0,1-2.57.25L1061.46,948q-2.28-.19-4.23-.51c-1.3-.21-2.56-.45-3.77-.71.78,1,1.53,2,2.26,3.12s1.45,2.29,2.16,3.62l12.31,22.73a6.32,6.32,0,0,1,.77,2.35,3.9,3.9,0,0,1-.69,2.69l-6.09,9.38-21.38-43.36-22.15-14.39,6.88-10.6,22.16,14.39,48.33,1.85Zm9.89-17.25-9.54-4.11,8.09-18.78L1047.53,885l5-11.61,52.87,22.79,8.13-18.86,9.54,4.11Zm25.43-64.79L1062,847l3.52-12.19,65.29,18.88Zm13.34-60.06a43.32,43.32,0,0,1-3.17,11.57,22.78,22.78,0,0,1-5.18,7.45,15.43,15.43,0,0,1-6.79,3.69,20.42,20.42,0,0,1-8.06.3,20.71,20.71,0,0,1-6.26-1.95,18.86,18.86,0,0,1-5.06-3.7,19.9,19.9,0,0,1-3.63-5.3,25,25,0,0,1-2-6.74,12.5,12.5,0,0,1-4.46,3.52l-27.33,13.13,1.67-11.25a5.57,5.57,0,0,1,1.06-2.67,5.66,5.66,0,0,1,2.15-1.65l23.63-10.93a5.06,5.06,0,0,0,2-1.49,6,6,0,0,0,.93-2.73l.8-5.35-26.27-3.91,1.86-12.51,67.22,10Z" transform="translate(-300 -300)" fill="#00a1e4"/><path d="M1110.43,811.83a9.89,9.89,0,0,0,3.32,3.08,13,13,0,0,0,4.57,1.54,9.68,9.68,0,0,0,8.35-2.2q3.25-3,4.28-9.89l1.19-8L1109.83,793l-1.16,7.81a19.26,19.26,0,0,0,0,6.29A12.1,12.1,0,0,0,1110.43,811.83Z" transform="translate(-300 -300)" fill="#00a1e4"/></svg>