<svg xmlns="http://www.w3.org/2000/svg" version="1.1" xmlns:xlink="http://www.w3.org/1999/xlink" xmlns:svgjs="http://svgjs.dev/svgjs" viewBox="0 0 800 800" opacity="1"><defs><filter id="bbburst-blur-1" x="-100%" y="-100%" width="400%" height="400%"><feGaussianBlur in="SourceGraphic" stdDeviation="1"></feGaussianBlur></filter><filter id="bbburst-blur-2" x="-100%" y="-100%" width="400%" height="400%"><feGaussianBlur in="SourceGraphic" stdDeviation="2"></feGaussianBlur></filter><filter id="bbburst-blur-3" x="-100%" y="-100%" width="400%" height="400%"><feGaussianBlur in="SourceGraphic" stdDeviation="4"></feGaussianBlur></filter><filter id="bbburst-blur-4" x="-100%" y="-100%" width="400%" height="400%"><feGaussianBlur in="SourceGraphic" stdDeviation="12"></feGaussianBlur></filter><symbol id="bbburst-shape-3" viewBox="0 0 131 127"><path d="m66 0 66 63.5L66 127 0 63.5 66 0Z"></path></symbol><symbol id="bbburst-shape-10" viewBox="0 0 145 145"><circle cx="72.5" cy="72.5" r="61.5" fill="none" stroke-width="22"></circle></symbol><symbol id="bbburst-shape-11" viewBox="0 0 194 167"><path d="M10.398 161 97 11l86.603 150H10.397Z" stroke-width="11"></path></symbol><symbol id="bbburst-shape-14" viewBox="0 0 185 109"><path d="M168 16.5C168 58.1975 134.197 92 92.5 92 50.8025 92 17 58.1975 17 16.5" stroke-width="33" stroke-linecap="round"></path></symbol></defs><use xlink:href="#bbburst-shape-14" width="24.769247369066903" opacity="0.7426912107561636" transform="matrix(0.7303322651178886,0.6830920747071906,-0.6830920747071906,0.7303322651178886,321.9125367239465,248.6858203533348)" fill="none" stroke="#102952"></use><use xlink:href="#bbburst-shape-14" width="22.14300609842176" opacity="0.7867620304084979" transform="matrix(0.9343002072775145,-0.3564871984815071,0.3564871984815071,0.9343002072775145,-65.31807932591153,235.84567421675553)" fill="none" stroke="#102952"></use><use xlink:href="#bbburst-shape-11" width="30.69433621656685" opacity="0.6919941942146368" transform="matrix(0.9578296440042615,-0.28733668938489154,0.28733668938489154,0.9578296440042615,-100.60372503893285,114.27524246614723)" fill="none" stroke="#4c53a3"></use><use xlink:href="#bbburst-shape-10" width="54.49145721954981" opacity="0.21198576784380463" transform="matrix(0.7553499103115993,0.6553216866488236,-0.6553216866488236,0.7553499103115993,982.7552654923304,212.46258150408278)" fill="none" stroke="#102952" filter="url(#bbburst-blur-3)"></use><use xlink:href="#bbburst-shape-3" width="43.928017850810164" opacity="0.5552367208065259" transform="matrix(0.9585761157825736,-0.28483649740016465,0.28483649740016465,0.9585761157825736,-6.551943515712765,-2.8929638297979636)" fill="#4c53a3" filter="url(#bbburst-blur-1)"></use><use xlink:href="#bbburst-shape-14" width="45.48950908442592" opacity="0.11301470572338224" transform="matrix(0.9985078739152543,-0.0546079273479469,0.0546079273479469,0.9985078739152543,689.0979185552198,-96.60021038238409)" fill="none" stroke="#102952" filter="url(#bbburst-blur-3)"></use><use xlink:href="#bbburst-shape-11" width="53.28147728304602" opacity="0.5154323107486833" transform="matrix(0.8058800992266469,-0.5920787664411297,0.5920787664411297,0.8058800992266469,146.79766574152916,227.59163713432116)" fill="none" stroke="#102952" filter="url(#bbburst-blur-1)"></use><use xlink:href="#bbburst-shape-14" width="47.62115676081579" opacity="0.605415145340183" transform="matrix(0.8666368975555365,0.4989393628441381,-0.4989393628441381,0.8666368975555365,546.6396326216476,298.44399214225047)" fill="none" stroke="#4c53a3" filter="url(#bbburst-blur-1)"></use><use xlink:href="#bbburst-shape-11" width="35.85503100943833" opacity="0.5295860332242447" transform="matrix(0.8164188959876508,-0.5774601166091952,0.5774601166091952,0.8164188959876508,78.49358426648661,142.7224391778323)" fill="none" stroke="#102952" filter="url(#bbburst-blur-1)"></use><use xlink:href="#bbburst-shape-11" width="14.323173942976076" opacity="0.8722068201280657" transform="matrix(0.9351561275808862,0.35423582123766284,-0.35423582123766284,0.9351561275808862,256.49913333316636,383.4255412115128)" fill="none" stroke="#4c53a3"></use><use xlink:href="#bbburst-shape-14" width="35.713342902368964" opacity="0.23416207160077462" transform="matrix(0.864389771126164,-0.5028223578685198,0.5028223578685198,0.864389771126164,-69.0546428814906,-288.23788514545737)" fill="none" stroke="#4c53a3" filter="url(#bbburst-blur-3)"></use><use xlink:href="#bbburst-shape-11" width="45.02599787813721" opacity="0.19517442001326069" transform="matrix(0.8188697215719586,-0.5739794239279514,0.5739794239279514,0.8188697215719586,69.98644717607647,-254.28959210435983)" fill="none" stroke="#4c53a3" filter="url(#bbburst-blur-3)"></use><use xlink:href="#bbburst-shape-11" width="23.751359445050404" opacity="0.7895218007135891" transform="matrix(0.9100803677254047,0.41443180896354015,-0.41443180896354015,0.9100803677254047,298.5147086232696,276.71919248498597)" fill="none" stroke="#102952"></use><use xlink:href="#bbburst-shape-10" width="15.035076072500322" opacity="0.9090127704753098" transform="matrix(0.7518663680689821,-0.6593155273211438,0.6593155273211438,0.7518663680689821,-180.24034639864453,485.9593396122097)" fill="none" stroke="#102952"></use><use xlink:href="#bbburst-shape-3" width="92.08874606827712" opacity="0.004718976498398253" transform="matrix(0.9980723233299337,0.06206156139502413,-0.06206156139502413,0.9980723233299337,682.5700432718156,-305.59632138279136)" fill="#102952" filter="url(#bbburst-blur-3)"></use><use xlink:href="#bbburst-shape-10" width="39.67462426090531" opacity="0.5978535428116467" transform="matrix(0.9961944000988721,0.08715914875472562,-0.08715914875472562,0.9961944000988721,50.83350100167086,-0.7626538415892128)" fill="none" stroke="#102952" filter="url(#bbburst-blur-1)"></use><use xlink:href="#bbburst-shape-3" width="51.28091357674171" opacity="0.3373114961861504" transform="matrix(0.790802991325128,-0.6120707711623138,0.6120707711623138,0.790802991325128,-76.8995448017019,-135.8630627619986)" fill="#102952" filter="url(#bbburst-blur-2)"></use><use xlink:href="#bbburst-shape-3" width="61.5590072177068" opacity="0.26600765234487833" transform="matrix(0.926603533872007,0.3760397465905809,-0.3760397465905809,0.926603533872007,851.3789073933423,338.4428458954093)" fill="#102952" filter="url(#bbburst-blur-2)"></use><use xlink:href="#bbburst-shape-14" width="21.040595036475715" opacity="0.8489778846888623" transform="matrix(0.9288094919067598,-0.37055759032019125,0.37055759032019125,0.9288094919067598,-39.109192355474235,339.2532867401698)" fill="none" stroke="#4c53a3"></use><use xlink:href="#bbburst-shape-14" width="17.370794013482808" opacity="0.9097784697657427" transform="matrix(0.8371936014026223,-0.5469066408177058,0.5469066408177058,0.8371936014026223,-157.79547308861646,410.8569220931014)" fill="none" stroke="#102952"></use><use xlink:href="#bbburst-shape-3" width="31.392768373360042" opacity="0.6504051474322937" transform="matrix(0.925289308018125,-0.37926204195429236,0.37926204195429236,0.925289308018125,180.1685275238215,389.5273989651932)" fill="#4c53a3"></use><use xlink:href="#bbburst-shape-14" width="24.11214331998778" opacity="0.8370362458511099" transform="matrix(0.9982404083597235,-0.059296602919666305,0.059296602919666305,0.9982404083597235,45.26915163418798,260.0552445710689)" fill="none" stroke="#4c53a3"></use><use xlink:href="#bbburst-shape-14" width="48.07365376168546" opacity="0.4517965341904492" transform="matrix(0.9906649891020413,-0.13631903523518804,0.13631903523518804,0.9906649891020413,118.9474115566727,-104.40142095816395)" fill="none" stroke="#4c53a3" filter="url(#bbburst-blur-1)"></use><use xlink:href="#bbburst-shape-3" width="41.38777841903472" opacity="0.6442443434024999" transform="matrix(0.9999410015949508,-0.010862473442384987,0.010862473442384987,0.9999410015949508,205.89807340427353,129.77313663028553)" fill="#4c53a3" filter="url(#bbburst-blur-1)"></use><use xlink:href="#bbburst-shape-14" width="46.317516930693685" opacity="0.29102926714741295" transform="matrix(0.7618255695495525,-0.6477822177093934,0.6477822177093934,0.7618255695495525,-229.1456776872207,-197.05376867185385)" fill="none" stroke="#102952" filter="url(#bbburst-blur-2)"></use><use xlink:href="#bbburst-shape-3" width="72.90165900908157" opacity="0.1239950872703921" transform="matrix(0.8103683074676513,-0.5859208190976098,0.5859208190976098,0.8103683074676513,240.78985923741214,-218.47478901725077)" fill="#4c53a3" filter="url(#bbburst-blur-3)"></use><use xlink:href="#bbburst-shape-3" width="38.366174694321046" opacity="0.42070255953052016" transform="matrix(0.9396691816710325,0.34208453489991636,-0.34208453489991636,0.9396691816710325,695.186290210692,360.8189872950343)" fill="#4c53a3" filter="url(#bbburst-blur-2)"></use><use xlink:href="#bbburst-shape-3" width="15.242658176636551" opacity="0.9673432905367327" transform="matrix(0.9576594678530251,-0.287903358145508,0.287903358145508,0.9576594678530251,-106.28111690492118,390.8117119003779)" fill="#102952"></use><use xlink:href="#bbburst-shape-11" width="27.738483959159836" opacity="0.8031212203663308" transform="matrix(0.8127401537460068,0.5826263317847187,-0.5826263317847187,0.8127401537460068,247.38617406086567,271.2993163462695)" fill="none" stroke="#102952"></use><use xlink:href="#bbburst-shape-14" width="16.5595148544719" opacity="0.8833256767678703" transform="matrix(0.9971206949018327,0.07583086309996877,-0.07583086309996877,0.9971206949018327,82.19153438732961,300.55182358552617)" fill="none" stroke="#102952"></use><use xlink:href="#bbburst-shape-14" width="50.47314686943028" opacity="0.49321850495917396" transform="matrix(0.9846509418208337,-0.17453516199134547,0.17453516199134547,0.9846509418208337,386.5255056789065,251.5632939834852)" fill="none" stroke="#4c53a3" filter="url(#bbburst-blur-1)"></use><use xlink:href="#bbburst-shape-11" width="23.97528691291103" opacity="0.8616780435145349" transform="matrix(0.9427303388307894,0.33355585476496286,-0.33355585476496286,0.9427303388307894,146.32144821788262,282.411256554535)" fill="none" stroke="#102952"></use><use xlink:href="#bbburst-shape-14" width="35.94705016164245" opacity="0.627786302875553" transform="matrix(0.9946812669150223,-0.103000860425173,0.103000860425173,0.9946812669150223,243.88230335282495,187.78432575557372)" fill="none" stroke="#4c53a3" filter="url(#bbburst-blur-1)"></use><use xlink:href="#bbburst-shape-14" width="55.18530694909059" opacity="0.30931286735339236" transform="matrix(0.9418952194468352,-0.3359068257466618,0.3359068257466618,0.9418952194468352,163.76765139354887,-177.3466074169641)" fill="none" stroke="#102952" filter="url(#bbburst-blur-2)"></use><use xlink:href="#bbburst-shape-3" width="65.72450176672753" opacity="0.35045761359039496" transform="matrix(0.9531200649913423,-0.30259236889072333,0.30259236889072333,0.9531200649913423,471.11450139840474,247.4202092324731)" fill="#102952" filter="url(#bbburst-blur-2)"></use><use xlink:href="#bbburst-shape-14" width="13.53853085986339" opacity="0.9481075121965965" transform="matrix(0.8395019734389931,0.5433566384908131,-0.5433566384908131,0.8395019734389931,259.74626648915444,441.05386143477324)" fill="none" stroke="#102952"></use><use xlink:href="#bbburst-shape-14" width="33.88818190221249" opacity="0.722803040741157" transform="matrix(0.8098656433063601,-0.5866154104624047,0.5866154104624047,0.8098656433063601,-34.795003979431215,309.2935666391831)" fill="none" stroke="#102952"></use><use xlink:href="#bbburst-shape-14" width="29.672376692428895" opacity="0.7252796801239607" transform="matrix(0.9911912576764321,0.13243825242660368,-0.13243825242660368,0.9911912576764321,310.5381371208964,365.0154617497609)" fill="none" stroke="#4c53a3"></use><use xlink:href="#bbburst-shape-3" width="45.84846844226699" opacity="0.3995281217296548" transform="matrix(0.9987081756643928,0.050813185897955845,-0.050813185897955845,0.9987081756643928,528.9716119009001,120.33608788657557)" fill="#4c53a3" filter="url(#bbburst-blur-2)"></use><use xlink:href="#bbburst-shape-14" width="50.84787191494634" opacity="0.5653610120498835" transform="matrix(0.7411392808075125,0.6713512988325288,-0.6713512988325288,0.7411392808075125,463.40508846750834,108.08191250087498)" fill="none" stroke="#102952" filter="url(#bbburst-blur-1)"></use><use xlink:href="#bbburst-shape-3" width="29.681298397985042" opacity="0.5042388076888255" transform="matrix(0.7309633517240565,0.6824167190480706,-0.6824167190480706,0.7309633517240565,319.41235608808074,4.980047969815303)" fill="#102952" filter="url(#bbburst-blur-1)"></use><use xlink:href="#bbburst-shape-3" width="50.75703500922441" opacity="0.3039920605488665" transform="matrix(0.881172257870185,0.4727953594949512,-0.4727953594949512,0.881172257870185,598.313882344116,-110.48687789126436)" fill="#4c53a3" filter="url(#bbburst-blur-2)"></use><use xlink:href="#bbburst-shape-11" width="32.07047954804696" opacity="0.7902899465545102" transform="matrix(0.997119339057989,0.07584868935294306,-0.07584868935294306,0.997119339057989,199.50747983160286,301.0009431531031)" fill="none" stroke="#4c53a3"></use><use xlink:href="#bbburst-shape-14" width="50.060049259273875" opacity="0.5508886455535351" transform="matrix(0.8177705546550311,-0.5755443683498281,0.5755443683498281,0.8177705546550311,195.58531231933458,436.5869861913652)" fill="none" stroke="#102952" filter="url(#bbburst-blur-1)"></use><use xlink:href="#bbburst-shape-14" width="48.11113123559031" opacity="0.4434952449324946" transform="matrix(0.983245592615297,0.18228577729102569,-0.18228577729102569,0.983245592615297,364.09038678119975,-56.50167409435119)" fill="none" stroke="#102952" filter="url(#bbburst-blur-2)"></use><use xlink:href="#bbburst-shape-10" width="40.629977687064546" opacity="0.7056450290628393" transform="matrix(0.8960692689030667,-0.443914254476609,0.443914254476609,0.8960692689030667,74.22775954978977,333.3453266042259)" fill="none" stroke="#4c53a3"></use><use xlink:href="#bbburst-shape-14" width="23.493246139670912" opacity="0.730028405652938" transform="matrix(0.7427885873993615,-0.6695260371555846,0.6695260371555846,0.7427885873993615,-130.93416462310964,283.41612536133704)" fill="none" stroke="#102952"></use><use xlink:href="#bbburst-shape-14" width="19.72751328707826" opacity="0.918963282476633" transform="matrix(0.8788228354367498,0.47714822006889157,-0.47714822006889157,0.8788228354367498,201.989194543906,365.2100303151678)" fill="none" stroke="#102952"></use><use xlink:href="#bbburst-shape-10" width="23.026634037468497" opacity="0.7826334982537082" transform="matrix(0.9706099099100363,-0.24065826971959892,0.24065826971959892,0.9706099099100363,106.43497833440803,375.71384066101984)" fill="none" stroke="#102952"></use><use xlink:href="#bbburst-shape-11" width="37.230745786008306" opacity="0.41168726461324057" transform="matrix(0.9266977510175513,-0.3758075016002377,0.3758075016002377,0.9266977510175513,-101.80093760794044,-148.732096705223)" fill="none" stroke="#102952" filter="url(#bbburst-blur-2)"></use><use xlink:href="#bbburst-shape-14" width="52.05940797758188" opacity="0.261621495634798" transform="matrix(0.9650463899742364,0.26207912011011875,-0.26207912011011875,0.9650463899742364,716.5638497319613,33.59829209470473)" fill="none" stroke="#102952" filter="url(#bbburst-blur-2)"></use><use xlink:href="#bbburst-shape-3" width="55.19854250589032" opacity="0.3818862053695026" transform="matrix(0.7113238948906829,-0.7028643656905282,0.7028643656905282,0.7113238948906829,167.0387541344241,131.19513705174614)" fill="#4c53a3" filter="url(#bbburst-blur-2)"></use><use xlink:href="#bbburst-shape-3" width="24.754002573738315" opacity="0.6460989320149422" transform="matrix(0.9940763793674697,-0.10868372455737103,0.10868372455737103,0.9940763793674697,37.50988287229804,62.365906583228934)" fill="#102952" filter="url(#bbburst-blur-1)"></use><use xlink:href="#bbburst-shape-3" width="20.100486426214452" opacity="0.8351892886020115" transform="matrix(0.8326368124847269,0.5538194096411517,-0.5538194096411517,0.8326368124847269,375.45514011907403,433.01759743939164)" fill="#4c53a3"></use><use xlink:href="#bbburst-shape-10" width="36.276286796609114" opacity="0.6653875286240709" transform="matrix(0.9455579954782989,0.32545364829275036,-0.32545364829275036,0.9455579954782989,261.78435755013146,116.14399453576709)" fill="none" stroke="#4c53a3"></use><use xlink:href="#bbburst-shape-3" width="78.47509014401847" opacity="0.20215076647928554" transform="matrix(0.9128904829286653,-0.4082045641320884,0.4082045641320884,0.9128904829286653,380.4128377836814,-97.11336423912269)" fill="#102952" filter="url(#bbburst-blur-3)"></use></svg>